<svg width="58" height="56" viewBox="0 0 58 56" fill="none" xmlns="http://www.w3.org/2000/svg">
<rect width="57.4086" height="55.2651" rx="10" fill="#78D444"/>
<g filter="url(#filter0_d_533_2446)">
<path d="M20.3188 29.3368H31.297M20.3188 22.7014H23.9782M20.3188 35.9722H31.297M36.7861 42.6076H41.3603M38.6158 42.6076H21.7826C18.7084 42.6076 17.1713 42.6076 15.9971 42.0651C14.9643 41.5881 14.1245 40.8268 13.5983 39.8904C13 38.8257 13 37.4323 13 34.6451V17.3219C13 15.82 13 15.069 13.348 14.6335C13.6516 14.2536 14.1184 14.008 14.6328 13.9576C15.2225 13.8997 15.9416 14.2723 17.38 15.0174L17.9515 15.3135C18.4809 15.5878 18.7456 15.7249 19.0267 15.7786C19.2755 15.8261 19.5324 15.8261 19.7812 15.7786C20.0623 15.7249 20.327 15.5878 20.8564 15.3135L24.3554 13.5008C24.8848 13.2265 25.1495 13.0893 25.4307 13.0356C25.6794 12.9881 25.9363 12.9881 26.1852 13.0356C26.4662 13.0893 26.731 13.2265 27.2603 13.5008L30.7594 15.3135C31.2887 15.5878 31.5535 15.7249 31.8345 15.7786C32.0834 15.8261 32.3403 15.8261 32.5891 15.7786C32.8702 15.7249 33.1349 15.5878 33.6642 15.3135L34.2358 15.0174C35.6742 14.2723 36.3932 13.8997 36.983 13.9576C37.4975 14.008 37.9642 14.2536 38.2678 14.6335C38.6158 15.069 38.6158 15.82 38.6158 17.3219V30.9956M45.9346 39.2899V32.9962C45.9346 30.9751 44.2962 29.3368 42.2752 29.3368V29.3368C40.2541 29.3368 38.6158 30.9751 38.6158 32.9962V39.2899C38.6158 41.1223 40.2541 42.6076 42.2752 42.6076C44.2963 42.6076 45.9346 41.1223 45.9346 39.2899Z" stroke="white" stroke-width="3" stroke-linecap="round" stroke-linejoin="round"/>
</g>
<defs>
<filter id="filter0_d_533_2446" x="7.5" y="9.5" width="43.9346" height="40.6074" filterUnits="userSpaceOnUse" color-interpolation-filters="sRGB">
<feFlood flood-opacity="0" result="BackgroundImageFix"/>
<feColorMatrix in="SourceAlpha" type="matrix" values="0 0 0 0 0 0 0 0 0 0 0 0 0 0 0 0 0 0 127 0" result="hardAlpha"/>
<feOffset dy="2"/>
<feGaussianBlur stdDeviation="2"/>
<feComposite in2="hardAlpha" operator="out"/>
<feColorMatrix type="matrix" values="0 0 0 0 0 0 0 0 0 0 0 0 0 0 0 0 0 0 0.25 0"/>
<feBlend mode="normal" in2="BackgroundImageFix" result="effect1_dropShadow_533_2446"/>
<feBlend mode="normal" in="SourceGraphic" in2="effect1_dropShadow_533_2446" result="shape"/>
</filter>
</defs>
</svg>
