<svg width="68" height="63" viewBox="0 0 68 63" fill="none" xmlns="http://www.w3.org/2000/svg">
<g filter="url(#filter0_d_273_3608)">
<rect x="4" y="1" width="60" height="54.4444" rx="10" fill="#78D444"/>
<g filter="url(#filter1_d_273_3608)">
<path d="M21.5926 18.5558H24.8333V37.8891H21.5926V18.5558ZM26.4537 18.5558H28.074V37.8891H26.4537V18.5558ZM29.6944 18.5558H34.5555V37.8891H29.6944V18.5558ZM36.1759 18.5558H37.7963V37.8891H36.1759V18.5558ZM41.037 18.5558H44.2778V37.8891H41.037V18.5558ZM45.8981 18.5558H47.5185V37.8891H45.8981V18.5558ZM18.3518 15.3336V21.778H15.1111V15.3336C15.1111 14.479 15.4525 13.6594 16.0603 13.0551C16.668 12.4508 17.4923 12.1113 18.3518 12.1113H24.8333V15.3336H18.3518ZM50.7592 12.1113C51.6187 12.1113 52.443 12.4508 53.0508 13.0551C53.6585 13.6594 54 14.479 54 15.3336V21.778H50.7592V15.3336H44.2778V12.1113H50.7592ZM18.3518 34.6669V41.1113H24.8333V44.3335H18.3518C17.4923 44.3335 16.668 43.9941 16.0603 43.3898C15.4525 42.7855 15.1111 41.9659 15.1111 41.1113V34.6669H18.3518ZM50.7592 41.1113V34.6669H54V41.1113C54 41.9659 53.6585 42.7855 53.0508 43.3898C52.443 43.9941 51.6187 44.3335 50.7592 44.3335H44.2778V41.1113H50.7592Z" fill="white"/>
</g>
</g>
<defs>
<filter id="filter0_d_273_3608" x="0" y="0" width="68" height="62.4443" filterUnits="userSpaceOnUse" color-interpolation-filters="sRGB">
<feFlood flood-opacity="0" result="BackgroundImageFix"/>
<feColorMatrix in="SourceAlpha" type="matrix" values="0 0 0 0 0 0 0 0 0 0 0 0 0 0 0 0 0 0 127 0" result="hardAlpha"/>
<feOffset dy="3"/>
<feGaussianBlur stdDeviation="2"/>
<feComposite in2="hardAlpha" operator="out"/>
<feColorMatrix type="matrix" values="0 0 0 0 0 0 0 0 0 0 0 0 0 0 0 0 0 0 0.25 0"/>
<feBlend mode="normal" in2="BackgroundImageFix" result="effect1_dropShadow_273_3608"/>
<feBlend mode="normal" in="SourceGraphic" in2="effect1_dropShadow_273_3608" result="shape"/>
</filter>
<filter id="filter1_d_273_3608" x="11.1111" y="10.1113" width="46.8889" height="40.2222" filterUnits="userSpaceOnUse" color-interpolation-filters="sRGB">
<feFlood flood-opacity="0" result="BackgroundImageFix"/>
<feColorMatrix in="SourceAlpha" type="matrix" values="0 0 0 0 0 0 0 0 0 0 0 0 0 0 0 0 0 0 127 0" result="hardAlpha"/>
<feOffset dy="2"/>
<feGaussianBlur stdDeviation="2"/>
<feComposite in2="hardAlpha" operator="out"/>
<feColorMatrix type="matrix" values="0 0 0 0 0 0 0 0 0 0 0 0 0 0 0 0 0 0 0.15 0"/>
<feBlend mode="normal" in2="BackgroundImageFix" result="effect1_dropShadow_273_3608"/>
<feBlend mode="normal" in="SourceGraphic" in2="effect1_dropShadow_273_3608" result="shape"/>
</filter>
</defs>
</svg>
