<svg width="654" height="594" viewBox="0 0 654 594" fill="none" xmlns="http://www.w3.org/2000/svg">
<rect width="654" height="593.444" rx="100" fill="#78D444"/>
<g filter="url(#filter0_d_377_2213)">
<path d="M191.761 201.358C191.761 195.835 196.239 191.358 201.761 191.358H217.086C222.608 191.358 227.086 195.835 227.086 201.358V392.091C227.086 397.614 222.608 402.091 217.086 402.091H201.761C196.239 402.091 191.761 397.614 191.761 392.091V201.358ZM244.748 200.189C244.748 195.312 248.701 191.358 253.579 191.358V191.358C258.456 191.358 262.41 195.312 262.41 200.189V393.26C262.41 398.138 258.456 402.091 253.579 402.091V402.091C248.701 402.091 244.748 398.138 244.748 393.26V200.189ZM280.072 201.358C280.072 195.835 284.549 191.358 290.072 191.358H323.058C328.581 191.358 333.058 195.835 333.058 201.358V392.091C333.058 397.614 328.581 402.091 323.058 402.091H290.072C284.549 402.091 280.072 397.614 280.072 392.091V201.358ZM350.72 200.189C350.72 195.312 354.674 191.358 359.551 191.358V191.358C364.428 191.358 368.382 195.312 368.382 200.189V393.26C368.382 398.138 364.428 402.091 359.551 402.091V402.091C354.674 402.091 350.72 398.138 350.72 393.26V200.189ZM403.706 201.358C403.706 195.835 408.183 191.358 413.706 191.358H429.03C434.553 191.358 439.03 195.835 439.03 201.358V392.091C439.03 397.614 434.553 402.091 429.03 402.091H413.706C408.183 402.091 403.706 397.614 403.706 392.091V201.358ZM456.692 200.189C456.692 195.312 460.646 191.358 465.523 191.358V191.358C470.4 191.358 474.354 195.312 474.354 200.189V393.26C474.354 398.138 470.4 402.091 465.523 402.091V402.091C460.646 402.091 456.692 398.138 456.692 393.26V200.189ZM166.437 156.236C160.915 156.236 156.437 160.713 156.437 166.236V216.48C156.437 222.003 151.96 226.48 146.437 226.48H131.113C125.59 226.48 121.113 222.003 121.113 216.48V156.236C121.113 146.921 124.835 137.987 131.459 131.401C138.084 124.814 147.069 121.114 156.437 121.114H217.086C222.608 121.114 227.086 125.591 227.086 131.114V146.236C227.086 151.759 222.608 156.236 217.086 156.236H166.437ZM509.678 121.114C519.047 121.114 528.031 124.814 534.656 131.401C541.281 137.987 545.002 146.921 545.002 156.236V216.48C545.002 222.003 540.525 226.48 535.002 226.48H519.678C514.155 226.48 509.678 222.003 509.678 216.48V166.236C509.678 160.713 505.201 156.236 499.678 156.236H449.03C443.507 156.236 439.03 151.759 439.03 146.236V131.114C439.03 125.591 443.507 121.114 449.03 121.114H509.678ZM146.437 366.969C151.96 366.969 156.437 371.446 156.437 376.969V427.214C156.437 432.736 160.915 437.214 166.437 437.214H217.086C222.608 437.214 227.086 441.691 227.086 447.214V462.336C227.086 467.859 222.608 472.336 217.086 472.336H156.437C147.069 472.336 138.084 468.635 131.459 462.049C124.835 455.462 121.113 446.529 121.113 437.214V376.969C121.113 371.446 125.59 366.969 131.113 366.969H146.437ZM499.678 437.214C505.201 437.214 509.678 432.736 509.678 427.214V376.969C509.678 371.446 514.155 366.969 519.678 366.969H535.002C540.525 366.969 545.002 371.446 545.002 376.969V437.214C545.002 446.529 541.281 455.462 534.656 462.049C528.031 468.635 519.047 472.336 509.678 472.336H449.03C443.507 472.336 439.03 467.859 439.03 462.336V447.214C439.03 441.691 443.507 437.214 449.03 437.214H499.678Z" fill="white"/>
</g>
<defs>
<filter id="filter0_d_377_2213" x="117.113" y="119.114" width="431.889" height="359.222" filterUnits="userSpaceOnUse" color-interpolation-filters="sRGB">
<feFlood flood-opacity="0" result="BackgroundImageFix"/>
<feColorMatrix in="SourceAlpha" type="matrix" values="0 0 0 0 0 0 0 0 0 0 0 0 0 0 0 0 0 0 127 0" result="hardAlpha"/>
<feOffset dy="2"/>
<feGaussianBlur stdDeviation="2"/>
<feComposite in2="hardAlpha" operator="out"/>
<feColorMatrix type="matrix" values="0 0 0 0 0 0 0 0 0 0 0 0 0 0 0 0 0 0 0.15 0"/>
<feBlend mode="normal" in2="BackgroundImageFix" result="effect1_dropShadow_377_2213"/>
<feBlend mode="normal" in="SourceGraphic" in2="effect1_dropShadow_377_2213" result="shape"/>
</filter>
</defs>
</svg>
