<svg width="404" height="404" viewBox="0 0 404 404" fill="none" xmlns="http://www.w3.org/2000/svg">
<rect width="404" height="404" rx="202" fill="#007AFF"/>
<path d="M137.379 73.5C130.288 73.5 124.444 80.4671 124.444 88.92V169.554C124.192 170.558 124.192 171.602 124.444 172.606V299.66C124.444 308.113 130.288 315.08 137.379 315.08V320.22C137.379 325.842 141.286 330.5 146.002 330.5H158.936C163.652 330.5 167.559 325.842 167.559 320.22V315.08H236.542V320.22C236.542 325.842 240.45 330.5 245.165 330.5H258.1C262.815 330.5 266.723 325.842 266.723 320.22V315.08C273.813 315.08 279.657 308.113 279.657 299.66V172.124C279.775 171.441 279.775 170.718 279.657 170.036V88.92C279.657 80.4671 273.813 73.5 266.723 73.5H137.379ZM137.379 83.78H266.723C269.148 83.78 271.034 86.0287 271.034 88.92V166.02H133.067V88.92C133.067 86.0287 134.954 83.78 137.379 83.78ZM154.22 104.179C154.035 104.22 153.85 104.28 153.681 104.34C151.677 104.882 150.263 107.03 150.313 109.48V145.46C150.296 147.307 151.105 149.034 152.452 149.978C153.799 150.901 155.45 150.901 156.797 149.978C158.145 149.034 158.953 147.307 158.936 145.46V109.48C158.987 107.994 158.481 106.569 157.589 105.565C156.679 104.541 155.45 104.039 154.22 104.179ZM133.067 176.3H271.034V299.66C271.034 302.551 269.148 304.8 266.723 304.8H137.379C134.954 304.8 133.067 302.551 133.067 299.66V176.3ZM154.22 191.559C154.035 191.6 153.85 191.66 153.681 191.72C151.677 192.262 150.263 194.41 150.313 196.86V232.84C150.296 234.687 151.105 236.414 152.452 237.358C153.799 238.281 155.45 238.281 156.797 237.358C158.145 236.414 158.953 234.687 158.936 232.84V196.86C158.987 195.374 158.481 193.949 157.589 192.945C156.679 191.921 155.45 191.419 154.22 191.559ZM146.002 315.08H158.936V320.22H146.002V315.08ZM245.165 315.08H258.1V320.22H245.165V315.08Z" fill="white"/>
</svg>
