<svg width="404" height="404" viewBox="0 0 404 404" fill="none" xmlns="http://www.w3.org/2000/svg">
<rect width="404" height="404" rx="202" fill="#5C6169"/>
<path d="M118.992 289.711C97.4102 289.711 85.8867 278.383 85.8867 256.898V201.723C85.8867 189.711 87.5469 184.535 93.1133 177.309L124.07 136.488C135.887 120.961 141.941 116.469 159.812 116.469H243.992C261.961 116.469 267.918 120.961 279.832 136.488L310.789 177.309C316.355 184.535 318.016 189.711 318.016 201.723V256.898C318.016 278.285 306.492 289.711 284.91 289.711H118.992ZM201.902 227.602C216.844 227.602 226.023 216.371 226.023 203.969V202.895C226.023 198.402 228.758 194.008 234.422 194.008H291.16C294.969 194.008 295.555 190.98 293.699 188.441L258.641 141.762C254.637 136.391 249.852 134.242 243.602 134.242H160.301C154.051 134.242 149.168 136.391 145.262 141.762L110.105 188.441C108.25 190.98 108.934 194.008 112.645 194.008H169.383C175.047 194.008 177.781 198.402 177.781 202.895V203.969C177.781 216.371 187.059 227.602 201.902 227.602Z" fill="white"/>
</svg>
