<svg width="404" height="404" viewBox="0 0 404 404" fill="none" xmlns="http://www.w3.org/2000/svg">
<rect width="404" height="404" rx="202" fill="#FFCC00"/>
<path d="M304.045 314.2H86.7563C84.7908 314.2 83.2007 312.43 83.2007 310.242V93.7578C83.2007 91.5702 84.7908 89.8003 86.7563 89.8003L302.489 89.8C304.455 89.8 306.045 91.5699 306.045 93.7575L307.601 310.242C307.601 312.43 306.011 314.2 304.045 314.2ZM96.3697 299.543L294.169 299.25L293.905 262.9H96.3697V299.543ZM96.3697 251.321H293.905V204.271H96.3697V251.321ZM96.3697 196.356H293.905V174.371V149.307H96.3697V196.356ZM96.3697 141.392H293.905V101.086H96.3697V141.392ZM284.292 281.221H225.031V273.306H284.292V281.221ZM155.894 281.221H146.017V273.306H155.894V281.221ZM136.14 281.221H126.263V273.306H136.14V281.221ZM116.387 281.221H106.51V273.306H116.387V281.221ZM284.292 226.257H225.031V218.342H284.292V226.257ZM155.894 226.257H146.017V218.342H155.894V226.257ZM136.14 226.257H126.263V218.342H136.14V226.257ZM116.387 226.257H106.51V218.342H116.387V226.257ZM284.292 171.293H225.031V163.378H284.292V171.293ZM155.894 171.293H146.017V163.378H155.894V171.293ZM136.14 171.293H126.263V163.378H136.14V171.293ZM116.387 171.293H106.51V163.378H116.387V171.293ZM284.292 116.329H225.031V108.414H284.292V116.329ZM155.894 116.329H146.017V108.414H155.894V116.329ZM136.14 116.329H126.263V108.414H136.14V116.329ZM116.387 116.329H106.51V108.414H116.387V116.329Z" fill="white"/>
</svg>
