<svg width="392" height="392" viewBox="0 0 392 392" fill="none" xmlns="http://www.w3.org/2000/svg">
<rect width="392" height="392" rx="30" fill="#C9BAB5"/>
<path d="M126.131 319V297.695H125.832L119.451 302.248V298.381L126.131 293.635H130.069V319H126.131ZM137.026 319V292.422H140.84V307.961H141.122L148.698 299.91H153.163L145.2 307.961L153.69 319H149.049L142.475 310.422L140.84 312.057V319H137.026ZM163.846 325.732C158.995 325.732 156.007 323.605 155.549 320.424L155.585 320.389H159.434L159.452 320.424C159.768 321.742 161.315 322.674 163.899 322.674C167.046 322.674 168.909 321.197 168.909 318.596V314.834H168.628C167.467 316.908 165.358 318.068 162.739 318.068C157.835 318.068 154.811 314.289 154.811 308.91V308.875C154.811 303.426 157.852 299.576 162.809 299.576C165.481 299.576 167.555 300.895 168.663 303.039H168.891V299.91H172.688V318.613C172.688 322.955 169.26 325.732 163.846 325.732ZM163.794 314.922C167.028 314.922 168.979 312.461 168.979 308.893V308.857C168.979 305.307 167.01 302.811 163.794 302.811C160.542 302.811 158.714 305.307 158.714 308.857V308.893C158.714 312.443 160.542 314.922 163.794 314.922ZM187.64 325.363V293.635H191.12V325.363H187.64ZM216.214 318.473L206.16 309.139V306.326H211.24C214.404 306.326 216.126 305.096 216.496 302.705H206.16V300.596H216.496C216.126 298.17 214.421 296.975 211.24 296.975H206.16V294.162H222.296V296.271H217.234C218.623 297.238 219.501 298.68 219.765 300.596H222.296V302.705H219.8C219.431 306.695 216.478 309.139 211.626 309.139H210.378L220.468 318.473H216.214ZM236.724 293.037C241.365 293.037 246.269 296.307 246.269 305.852V305.887C246.269 314.535 242.666 319.598 236.513 319.598C232.26 319.598 229.095 317.102 228.234 313.357L228.181 313.129H231.363L231.433 313.322C232.207 315.449 233.982 316.768 236.549 316.768C241.154 316.768 243.035 312.268 243.228 306.977C243.246 306.783 243.246 306.572 243.246 306.379H242.912C241.98 308.453 239.59 310.299 236.162 310.299C231.398 310.299 227.847 306.678 227.847 301.809V301.773C227.847 296.711 231.609 293.037 236.724 293.037ZM236.707 307.539C239.994 307.539 242.49 305.131 242.49 301.826V301.809C242.49 298.469 239.976 295.832 236.76 295.832C233.578 295.832 231.029 298.416 231.029 301.703V301.738C231.029 305.113 233.42 307.539 236.707 307.539ZM259.783 319.475C254.369 319.475 250.836 316.504 250.502 312.303L250.484 312.092H254.246L254.264 312.268C254.51 314.57 256.637 316.188 259.783 316.188C262.877 316.188 264.969 314.447 264.969 311.951V311.916C264.969 309.051 262.894 307.451 259.519 307.451H256.426V304.393H259.396C262.297 304.393 264.266 302.688 264.266 300.332V300.297C264.266 297.836 262.613 296.395 259.748 296.395C256.935 296.395 254.967 297.889 254.721 300.279L254.703 300.455H251.012L251.029 300.262C251.416 295.99 254.791 293.16 259.748 293.16C264.793 293.16 268.098 295.867 268.098 299.787V299.822C268.098 302.969 265.848 305.078 262.754 305.729V305.816C266.48 306.15 268.977 308.4 268.977 311.951V311.986C268.977 316.346 265.162 319.475 259.783 319.475ZM282.367 319.615C277.375 319.615 273.93 316.504 273.578 312.391L273.561 312.162H277.252L277.27 312.303C277.604 314.535 279.625 316.311 282.402 316.311C285.531 316.311 287.711 314.078 287.711 310.896V310.861C287.711 307.732 285.496 305.518 282.438 305.518C280.891 305.518 279.572 305.975 278.57 306.889C278.113 307.293 277.709 307.785 277.41 308.365H274.018L275.283 293.635H290.031V296.975H278.377L277.604 305.061H277.902C278.975 303.355 280.961 302.371 283.299 302.371C288.063 302.371 291.473 305.922 291.473 310.791V310.826C291.473 316.029 287.711 319.615 282.367 319.615Z" fill="#5E270B"/>
<path d="M118.601 271.82C109.202 271.82 103.343 265.023 103.343 254.125V254.078C103.343 243.156 109.179 236.359 118.577 236.359C126.03 236.359 131.749 241.07 132.64 247.797L132.616 247.914H127.413V247.844C126.429 243.695 123.03 241 118.577 241C112.507 241 108.71 246.039 108.71 254.078V254.125C108.71 262.141 112.507 267.18 118.601 267.18C123.077 267.18 126.429 264.789 127.39 260.969L127.437 260.875H132.64V261.016C131.655 267.508 126.148 271.82 118.601 271.82ZM138.794 271V235.562H143.88V271H138.794ZM161.73 271.492C154.277 271.492 149.777 266.406 149.777 258.344V258.32C149.777 250.375 154.371 245.055 161.472 245.055C168.574 245.055 172.933 250.188 172.933 257.828V259.609H154.886C154.98 264.484 157.652 267.32 161.847 267.32C165.105 267.32 167.05 265.703 167.66 264.391L167.754 264.203L172.652 264.18L172.605 264.391C171.761 267.742 168.246 271.492 161.73 271.492ZM161.496 249.227C158.027 249.227 155.402 251.594 154.957 255.977H167.894C167.496 251.43 164.941 249.227 161.496 249.227ZM185.556 271.422C180.705 271.422 177.119 268.469 177.119 263.852V263.805C177.119 259.258 180.541 256.609 186.611 256.234L193.502 255.836V253.586C193.502 250.797 191.744 249.25 188.299 249.25C185.486 249.25 183.635 250.281 183.025 252.086L183.002 252.18H178.103L178.127 252.016C178.736 247.844 182.744 245.055 188.533 245.055C194.931 245.055 198.541 248.242 198.541 253.586V271H193.502V267.391H193.103C191.603 269.969 188.931 271.422 185.556 271.422ZM182.181 263.641C182.181 265.984 184.174 267.367 186.916 267.367C190.713 267.367 193.502 264.883 193.502 261.602V259.422L187.291 259.82C183.775 260.031 182.181 261.297 182.181 263.594V263.641ZM205.305 271V245.547H210.391V249.391H210.766C211.68 246.695 214.047 245.102 217.445 245.102C218.266 245.102 219.156 245.219 219.672 245.336V250.023C218.758 249.836 217.891 249.719 216.93 249.719C213.039 249.719 210.391 252.109 210.391 255.789V271H205.305ZM234.817 271L247.028 237.18H252.7L264.911 271H259.379L256.332 261.859H243.395L240.325 271H234.817ZM249.653 243.109L244.801 257.641H254.926L250.051 243.109H249.653ZM270.034 271V235.562H275.12V271H270.034ZM282.516 271V235.562H287.602V271H282.516Z" fill="#5E270B"/>
<path d="M157.44 219H234.644C247.581 219 255.898 211.343 256.57 198.663L262.198 80.0969H271.439C275.724 80.0969 279 76.8035 279 72.6866C279 68.5697 275.64 65.4409 271.439 65.4409H234.14V53.0903C234.14 40.4104 225.907 33 211.878 33H179.954C165.925 33 157.692 40.4104 157.692 53.0903V65.4409H120.561C116.36 65.4409 113 68.6521 113 72.6866C113 76.8858 116.36 80.0969 120.561 80.0969H129.802L135.43 198.663C136.102 211.425 144.335 219 157.44 219ZM173.402 53.8313C173.402 49.6321 176.426 46.915 181.047 46.915H210.785C215.406 46.915 218.43 49.6321 218.43 53.8313V65.4409H173.402V53.8313ZM159.12 204.262C154.5 204.262 151.14 200.886 150.888 196.028L145.259 80.0969H246.489L241.028 196.028C240.86 200.968 237.584 204.262 232.796 204.262H159.12ZM171.218 191.005C174.83 191.005 177.098 188.782 177.014 185.489L174.494 99.3639C174.41 96.0704 172.058 93.9296 168.613 93.9296C165.085 93.9296 162.817 96.1527 162.901 99.4462L165.421 185.571C165.505 188.865 167.857 191.005 171.218 191.005ZM196 191.005C199.528 191.005 201.965 188.865 201.965 185.571V99.4462C201.965 96.1527 199.528 93.9296 196 93.9296C192.472 93.9296 190.119 96.1527 190.119 99.4462V185.571C190.119 188.865 192.472 191.005 196 191.005ZM220.782 191.088C224.143 191.088 226.495 188.865 226.579 185.571L229.099 99.4462C229.183 96.1527 226.915 94.012 223.387 94.012C219.942 94.012 217.59 96.1527 217.506 99.4462L214.986 185.571C214.902 188.782 217.17 191.088 220.782 191.088Z" fill="#5E270B"/>
</svg>
