<svg width="404" height="404" viewBox="0 0 404 404" fill="none" xmlns="http://www.w3.org/2000/svg">
<rect width="404" height="404" rx="202" fill="#28CD41"/>
<path d="M76.9954 90.5664C76.9954 81.7298 84.1588 74.5664 92.9954 74.5664H211.738V195.217V315.868H92.9954C84.1588 315.868 76.9954 308.705 76.9954 299.868V90.5664ZM198.99 102.008C198.99 93.1711 191.827 86.0076 182.99 86.0076H105.743C96.9062 86.0076 89.7427 93.1711 89.7427 102.008V288.426C89.7427 297.263 96.9062 304.426 105.743 304.426H182.99C191.827 304.426 198.99 297.263 198.99 288.426V102.008ZM198.99 254.752C198.99 245.915 206.154 238.752 214.99 238.752H333.734V299.868C333.734 308.704 326.57 315.868 317.734 315.868H198.99V254.752ZM320.986 266.194C320.986 257.357 313.823 250.194 304.986 250.194H227.739C218.902 250.194 211.739 257.357 211.739 266.194V288.426C211.739 297.263 218.902 304.426 227.739 304.426H304.986C313.823 304.426 320.986 297.263 320.986 288.426V266.194ZM126.329 325.626C126.329 329.146 123.475 332 119.955 332V332C116.435 332 113.582 329.146 113.582 325.626V316.521C113.582 313 116.435 310.147 119.955 310.147V310.147C123.475 310.147 126.329 313 126.329 316.521V325.626ZM297.148 325.626C297.148 329.146 294.295 332 290.774 332V332C287.254 332 284.4 329.146 284.4 325.626V316.521C284.4 313.001 287.254 310.147 290.774 310.147V310.147C294.294 310.147 297.148 313 297.148 316.52L297.148 325.626ZM162.915 205.262C162.915 208.782 160.061 211.636 156.541 211.636V211.636C153.021 211.636 150.167 208.782 150.167 205.262V196.156C150.167 192.636 153.021 189.782 156.541 189.782V189.782C160.061 189.782 162.915 192.636 162.915 196.156V205.262ZM272.672 259.953C272.672 263.473 269.819 266.326 266.299 266.326V266.326C262.779 266.326 259.925 263.473 259.925 259.953V250.846C259.925 247.326 262.779 244.473 266.299 244.473V244.473C269.819 244.473 272.672 247.326 272.672 250.846V259.953ZM198.991 200.061C198.991 191.225 206.154 184.061 214.991 184.061H333.734V250.193H214.991C206.154 250.193 198.99 243.03 198.991 234.193L198.991 200.061ZM320.987 211.503C320.987 202.666 313.823 195.503 304.987 195.503H227.739C218.903 195.503 211.739 202.666 211.739 211.503V222.752C211.739 231.588 218.903 238.752 227.739 238.752H304.987C313.823 238.752 320.987 231.588 320.987 222.752V211.503ZM272.673 205.262C272.673 208.782 269.82 211.635 266.299 211.635V211.635C262.779 211.635 259.926 208.782 259.926 205.262V196.156C259.926 192.636 262.779 189.782 266.299 189.782V189.782C269.82 189.782 272.673 192.636 272.673 196.156V205.262ZM198.99 145.257C198.99 136.42 206.154 129.257 214.99 129.257H333.734V195.389H214.99C206.154 195.389 198.99 188.225 198.99 179.389V145.257ZM320.986 156.698C320.986 147.861 313.823 140.698 304.986 140.698H227.739C218.902 140.698 211.739 147.861 211.739 156.698V167.947C211.739 176.784 218.902 183.947 227.739 183.947H304.986C313.823 183.947 320.986 176.784 320.986 167.947V156.698ZM272.673 150.572C272.673 154.092 269.819 156.945 266.299 156.945V156.945C262.779 156.945 259.925 154.092 259.925 150.572V141.352C259.925 137.832 262.779 134.978 266.299 134.978V134.978C269.819 134.978 272.673 137.832 272.673 141.352V150.572ZM198.99 74.5664H317.734C326.57 74.5664 333.734 81.7299 333.734 90.5664V140.698H214.99C206.154 140.698 198.99 133.535 198.99 124.698V74.5664ZM320.986 102.008C320.986 93.1711 313.823 86.0076 304.986 86.0076H227.739C218.902 86.0076 211.739 93.1711 211.739 102.008V113.257C211.739 122.093 218.902 129.257 227.739 129.257H304.986C313.823 129.257 320.986 122.093 320.986 113.257V102.008ZM272.673 95.7668C272.673 99.2869 269.819 102.14 266.299 102.14V102.14C262.779 102.14 259.925 99.2869 259.925 95.7668V86.6612C259.925 83.1411 262.779 80.2875 266.299 80.2875V80.2875C269.819 80.2875 272.673 83.1411 272.673 86.6612V95.7668Z" fill="white"/>
</svg>
