<svg width="616" height="593" viewBox="0 0 616 593" fill="none" xmlns="http://www.w3.org/2000/svg">
<rect width="616" height="593" rx="100" fill="#78D444"/>
<path d="M204.889 317.272H350.222M204.889 229.43H253.333M204.889 405.114H350.222M422.889 492.956H483.444M447.111 492.956H224.267C183.569 492.956 163.221 492.956 147.677 485.775C134.004 479.459 122.887 469.382 115.92 456.985C108 442.891 108 424.444 108 387.546V158.214C108 138.332 108 128.39 112.607 122.625C116.626 117.596 122.805 114.345 129.615 113.676C137.422 112.91 146.943 117.843 165.984 127.707L173.55 131.627C180.558 135.258 184.062 137.073 187.784 137.784C191.077 138.413 194.479 138.413 197.772 137.784C201.493 137.073 204.997 135.258 212.006 131.627L258.327 107.629C265.336 103.998 268.84 102.183 272.562 101.472C275.855 100.843 279.256 100.843 282.55 101.472C286.271 102.183 289.776 103.998 296.783 107.629L343.106 131.627C350.113 135.258 353.618 137.073 357.339 137.784C360.633 138.413 364.034 138.413 367.328 137.784C371.048 137.073 374.553 135.258 381.561 131.627L389.128 127.707C408.169 117.843 417.688 112.91 425.495 113.676C432.306 114.345 438.486 117.596 442.504 122.625C447.111 128.39 447.111 138.332 447.111 158.214V339.233M447.111 317.272H544V449.035C544 473.293 522.311 492.956 495.556 492.956C468.8 492.956 447.111 473.293 447.111 449.035V317.272Z" stroke="white" stroke-width="35" stroke-linecap="round" stroke-linejoin="round"/>
</svg>
